<svg width="31" height="30" viewBox="0 0 31 30" fill="none" xmlns="http://www.w3.org/2000/svg">
<path d="M0.230225 1.28482C0.230225 0.574701 0.805902 -0.000976562 1.51602 -0.000976562H2.4731C4.10259 -0.000976562 5.07823 1.09451 5.63615 2.11286C6.00802 2.79167 6.27704 3.579 6.48747 4.29179C6.54445 4.28732 6.6022 4.28502 6.66059 4.28502H28.0859C29.5092 4.28502 30.537 5.64697 30.1468 7.01571L27.0132 18.0035C26.4358 20.0287 24.5853 21.4252 22.4795 21.4252H12.282C10.1588 21.4252 8.2975 20.0059 7.73557 17.9584L6.43178 13.2076L4.27404 5.92361L4.27055 5.91085C4.00361 4.93736 3.75309 4.02794 3.38083 3.34844C3.01931 2.68857 2.73114 2.57062 2.4731 2.57062H1.51602C0.805902 2.57062 0.230225 1.99494 0.230225 1.28482ZM8.92707 12.5832L10.2155 17.2778C10.4709 18.2085 11.3169 18.8536 12.282 18.8536H22.4795C23.4367 18.8536 24.2777 18.2188 24.5404 17.2983L27.518 6.85662H7.23438L8.90347 12.4915C8.91252 12.522 8.92037 12.5525 8.92707 12.5832ZM14.8026 26.5722C14.8026 28.4659 13.2675 30.001 11.3738 30.001C9.48014 30.001 7.94502 28.4659 7.94502 26.5722C7.94502 24.6785 9.48014 23.1434 11.3738 23.1434C13.2675 23.1434 14.8026 24.6785 14.8026 26.5722ZM12.231 26.5722C12.231 26.0988 11.8472 25.715 11.3738 25.715C10.9004 25.715 10.5166 26.0988 10.5166 26.5722C10.5166 27.0455 10.9004 27.4294 11.3738 27.4294C11.8472 27.4294 12.231 27.0455 12.231 26.5722ZM26.8034 26.5722C26.8034 28.4659 25.2683 30.001 23.3746 30.001C21.4809 30.001 19.9458 28.4659 19.9458 26.5722C19.9458 24.6785 21.4809 23.1434 23.3746 23.1434C25.2683 23.1434 26.8034 24.6785 26.8034 26.5722ZM24.2318 26.5722C24.2318 26.0988 23.8479 25.715 23.3746 25.715C22.9013 25.715 22.5174 26.0988 22.5174 26.5722C22.5174 27.0455 22.9013 27.4294 23.3746 27.4294C23.8479 27.4294 24.2318 27.0455 24.2318 26.5722Z" fill="#070422"/>
</svg>
