<svg width="449" height="148" viewBox="0 0 449 148" fill="none" xmlns="http://www.w3.org/2000/svg">
<path d="M96.1 99.6V112.2H77.2V148H63V112.2H0V103.4L49.9 0H65.2L17.3 99.6H63L65.1 50H77.2V99.6H96.1Z" fill="#070422"/>
<path d="M312.1 74C312.1 114.869 272.701 148 224.1 148C175.499 148 136.1 114.869 136.1 74C136.1 33.1309 175.499 0 224.1 0C272.701 0 312.1 33.1309 312.1 74ZM149.405 74C149.405 108.69 182.847 136.811 224.1 136.811C265.352 136.811 298.794 108.69 298.794 74C298.794 39.3104 265.352 11.189 224.1 11.189C182.847 11.189 149.405 39.3104 149.405 74Z" fill="#070422"/>
<path fill-rule="evenodd" clip-rule="evenodd" d="M265.384 39.0304L237.1 67.3147L234.979 65.1934L263.263 36.9091L265.384 39.0304Z" fill="#070422"/>
<path fill-rule="evenodd" clip-rule="evenodd" d="M206 42.0923L178.093 69.9993L176 67.9062L203.907 39.9993L206 42.0923Z" fill="#070422"/>
<path fill-rule="evenodd" clip-rule="evenodd" d="M178.093 40L206 67.907L203.907 70L176 42.093L178.093 40Z" fill="#070422"/>
<path fill-rule="evenodd" clip-rule="evenodd" d="M238.148 37.0007L266.432 65.2849L264.311 67.4062L236.026 39.122L238.148 37.0007Z" fill="#070422"/>
<path d="M187.1 106.5C187.1 101.328 190.998 96.3684 197.937 92.7114C204.875 89.0545 214.287 87 224.1 87C233.913 87 243.324 89.0545 250.263 92.7114C257.201 96.3684 261.1 101.328 261.1 106.5L252.818 106.5C252.818 102.486 249.792 98.6362 244.406 95.7978C239.021 92.9594 231.716 91.3648 224.1 91.3648C216.483 91.3648 209.179 92.9594 203.793 95.7978C198.407 98.6362 195.382 102.486 195.382 106.5H187.1Z" fill="#070422"/>
<path d="M254.941 100.175C254.847 104.165 254.205 108.178 253.07 111.873C251.935 115.569 250.341 118.838 248.423 121.404C246.504 123.97 244.318 125.757 242.05 126.613C239.782 127.47 237.498 127.37 235.392 126.324C233.286 125.277 231.421 123.314 229.954 120.601C228.487 117.887 227.461 114.504 226.964 110.737C226.467 106.971 226.514 102.932 227.099 98.9634C227.685 94.9948 228.792 91.2134 230.328 87.9397L233.21 91.8924C232.098 94.2639 231.296 97.0033 230.871 99.8782C230.447 102.753 230.414 105.679 230.774 108.408C231.134 111.136 231.877 113.587 232.94 115.553C234.002 117.518 235.354 118.941 236.879 119.699C238.405 120.457 240.059 120.529 241.702 119.909C243.346 119.288 244.929 117.994 246.319 116.135C247.709 114.276 248.863 111.908 249.685 109.23C250.508 106.553 250.973 103.646 251.041 100.756L254.941 100.175Z" fill="#070422"/>
<path d="M448.2 99.6V112.2H429.3V148H415.1V112.2H352.1V103.4L402 0H417.3L369.4 99.6H415.1L417.2 50H429.3V99.6H448.2Z" fill="#070422"/>
</svg>
