<svg width="23" height="30" viewBox="0 0 23 30" fill="none" xmlns="http://www.w3.org/2000/svg">
<path d="M2.1063 29.7749C1.32281 30.3387 0.230225 29.7787 0.230225 28.8135V5.13232C0.230225 2.29781 2.52804 0 5.36255 0H17.2038C20.0383 0 22.3361 2.29781 22.3361 5.13232V28.8135C22.3361 29.7787 21.2435 30.3387 20.4601 29.7749L11.2831 23.1725L2.1063 29.7749ZM19.9674 5.13232C19.9674 3.60605 18.7301 2.36876 17.2038 2.36876H5.36255C3.83627 2.36876 2.59899 3.60605 2.59899 5.13232V26.5024L10.5915 20.752C11.0047 20.4548 11.5617 20.4548 11.9748 20.752L19.9674 26.5024V5.13232Z" fill="#070422"/>
</svg>
