<svg width="41" height="40" viewBox="0 0 41 40" fill="none" xmlns="http://www.w3.org/2000/svg">
<path d="M30.9456 14.0001L28.7202 14.3751L30.2038 12.5001L27.6074 13.2501C24.2693 9.50011 19.0766 13.6251 20.5602 17.0001C14.6257 17.0001 11.6584 12.5001 11.6584 12.5001C11.6584 12.5001 9.43299 15.8751 13.1421 18.5001L10.9166 17.7501C10.9166 20.0001 12.4002 21.5001 14.9966 22.2501H12.4002C13.8839 25.2501 16.4802 25.2501 16.4802 25.2501C16.4802 25.2501 14.2548 27.1251 10.1748 27.1251C22.4147 33.1251 29.8329 21.8751 28.7202 15.8751L30.9456 14.0001Z" fill="white"/>
<path d="M39.8418 20C39.8418 30.7747 31.2039 39.5 20.56 39.5C9.9162 39.5 1.27832 30.7747 1.27832 20C1.27832 9.22526 9.9162 0.5 20.56 0.5C31.2039 0.5 39.8418 9.22526 39.8418 20Z" stroke="white"/>
</svg>
