<svg width="97" height="36" viewBox="0 0 97 36" fill="none" xmlns="http://www.w3.org/2000/svg">
<path d="M0 22.0002L7.488 5.2002H11.328L18.84 22.0002H14.76L8.616 7.1682H10.152L3.984 22.0002H0ZM3.744 18.4002L4.776 15.4482H13.416L14.472 18.4002H3.744Z" fill="white"/>
<path d="M23.9361 19.3599L24.0321 14.7999L30.0561 9.08789H34.5201L28.7361 14.9679L26.7921 16.5519L23.9361 19.3599ZM20.8401 21.9999V4.19189H24.5841V21.9999H20.8401ZM30.4641 21.9999L26.0961 16.5759L28.4481 13.6719L35.0001 21.9999H30.4641Z" fill="white"/>
<path d="M37 21.9999V4.19189H40.744V21.9999H37Z" fill="white"/>
<path d="M56.7439 15C56.7439 18.866 53.6099 22 49.7439 22C45.8779 22 42.7439 18.866 42.7439 15C42.7439 11.134 45.8779 8 49.7439 8C53.6099 8 56.7439 11.134 56.7439 15ZM45.4313 15C45.4313 17.3818 47.3621 19.3126 49.7439 19.3126C52.1257 19.3126 54.0565 17.3818 54.0565 15C54.0565 12.6182 52.1257 10.6874 49.7439 10.6874C47.3621 10.6874 45.4313 12.6182 45.4313 15Z" fill="white"/>
<circle cx="49.7439" cy="15" r="3" fill="white"/>
<path d="M72.7439 15C72.7439 18.866 69.6099 22 65.7439 22C61.8779 22 58.7439 18.866 58.7439 15C58.7439 11.134 61.8779 8 65.7439 8C69.6099 8 72.7439 11.134 72.7439 15ZM61.4313 15C61.4313 17.3818 63.3621 19.3126 65.7439 19.3126C68.1257 19.3126 70.0565 17.3818 70.0565 15C70.0565 12.6182 68.1257 10.6874 65.7439 10.6874C63.3621 10.6874 61.4313 12.6182 61.4313 15Z" fill="white"/>
<circle cx="66" cy="15" r="3" fill="white"/>
<path d="M65.7439 8C65.7439 6.94943 65.537 5.90914 65.1349 4.93853C64.7329 3.96793 64.1436 3.08601 63.4008 2.34315C62.6579 1.60028 61.776 1.011 60.8054 0.608964C59.8348 0.206926 58.7945 -4.59221e-08 57.7439 0C56.6933 4.59221e-08 55.653 0.206926 54.6824 0.608964C53.7118 1.011 52.8299 1.60028 52.087 2.34315C51.3442 3.08601 50.7549 3.96793 50.3529 4.93853C49.9508 5.90914 49.7439 6.94943 49.7439 8L52.422 8C52.422 7.30112 52.5596 6.60908 52.8271 5.96339C53.0945 5.31771 53.4866 4.73103 53.9807 4.23684C54.4749 3.74266 55.0616 3.35065 55.7073 3.0832C56.353 2.81574 57.045 2.67809 57.7439 2.67809C58.4428 2.67809 59.1348 2.81574 59.7805 3.08319C60.4262 3.35065 61.0129 3.74266 61.5071 4.23684C62.0012 4.73103 62.3933 5.31771 62.6607 5.96339C62.9282 6.60908 63.0658 7.30112 63.0658 8H65.7439Z" fill="white"/>
<path d="M91.2801 8.896C92.3041 8.896 93.2081 9.104 93.9921 9.52C94.7921 9.92 95.4161 10.544 95.8641 11.392C96.3281 12.224 96.5601 13.296 96.5601 14.608V22H92.8161V15.184C92.8161 14.144 92.6001 13.376 92.1681 12.88C91.7361 12.384 91.1281 12.136 90.3441 12.136C89.8001 12.136 89.3121 12.264 88.8801 12.52C88.4481 12.76 88.1121 13.128 87.8721 13.624C87.6321 14.12 87.5121 14.752 87.5121 15.52V22H83.7681V15.184C83.7681 14.144 83.5521 13.376 83.1201 12.88C82.7041 12.384 82.1041 12.136 81.3201 12.136C80.7761 12.136 80.2881 12.264 79.8561 12.52C79.4241 12.76 79.0881 13.128 78.8481 13.624C78.6081 14.12 78.4881 14.752 78.4881 15.52V22H74.7441V9.088H78.3201V12.616L77.6481 11.584C78.0961 10.704 78.7281 10.04 79.5441 9.592C80.3761 9.128 81.3201 8.896 82.3761 8.896C83.5601 8.896 84.5921 9.2 85.4721 9.808C86.3681 10.4 86.9601 11.312 87.2481 12.544L85.9281 12.184C86.3601 11.176 87.0481 10.376 87.9921 9.784C88.9521 9.192 90.0481 8.896 91.2801 8.896Z" fill="white"/>
<path d="M13.4777 36C12.7311 36 12.0155 35.8987 11.3311 35.6961C10.6466 35.4843 10.0955 35.2127 9.67773 34.8812L10.4111 33.1961C10.8111 33.4908 11.2822 33.7348 11.8244 33.9282C12.3755 34.1123 12.9311 34.2044 13.4911 34.2044C13.9177 34.2044 14.26 34.163 14.5177 34.0801C14.7844 33.988 14.98 33.8637 15.1044 33.7072C15.2288 33.5506 15.2911 33.3711 15.2911 33.1685C15.2911 32.9107 15.1933 32.7081 14.9977 32.5608C14.8022 32.4042 14.5444 32.2799 14.2244 32.1878C13.9044 32.0866 13.5488 31.9945 13.1577 31.9116C12.7755 31.8195 12.3888 31.709 11.9977 31.5801C11.6155 31.4512 11.2644 31.2855 10.9444 31.0829C10.6244 30.8803 10.3622 30.6133 10.1577 30.2818C9.96218 29.9503 9.8644 29.5267 9.8644 29.011C9.8644 28.4586 10.0066 27.9567 10.2911 27.5055C10.5844 27.0451 11.02 26.6814 11.5977 26.4144C12.1844 26.1381 12.9177 26 13.7977 26C14.3844 26 14.9622 26.0737 15.5311 26.221C16.1 26.3591 16.6022 26.5709 17.0377 26.8564L16.3711 28.5552C15.9355 28.2974 15.5 28.1087 15.0644 27.989C14.6288 27.86 14.2022 27.7956 13.7844 27.7956C13.3666 27.7956 13.0244 27.8462 12.7577 27.9475C12.4911 28.0488 12.3 28.1823 12.1844 28.3481C12.0688 28.5046 12.0111 28.6888 12.0111 28.9006C12.0111 29.1492 12.1088 29.3517 12.3044 29.5083C12.5 29.6556 12.7577 29.7753 13.0777 29.8674C13.3977 29.9595 13.7488 30.0516 14.1311 30.1436C14.5222 30.2357 14.9088 30.3416 15.2911 30.4613C15.6822 30.581 16.0377 30.7422 16.3577 30.9448C16.6777 31.1473 16.9355 31.4144 17.1311 31.7459C17.3355 32.0773 17.4377 32.4963 17.4377 33.0028C17.4377 33.546 17.2911 34.0433 16.9977 34.4945C16.7044 34.9457 16.2644 35.3094 15.6777 35.5856C15.1 35.8619 14.3666 36 13.4777 36Z" fill="white"/>
<path d="M37.8377 26H39.9977V36H37.8377V26ZM33.5977 36H31.4377V26H33.5977V36ZM37.9977 31.9H33.4377V29.9429H37.9977V31.9Z" fill="white"/>
<path d="M59.1178 36C58.38 36 57.6956 35.8757 57.0645 35.6271C56.4422 35.3785 55.9 35.0285 55.4378 34.5773C54.9845 34.1262 54.6289 33.5967 54.3711 32.989C54.1222 32.3812 53.9978 31.7182 53.9978 31C53.9978 30.2818 54.1222 29.6188 54.3711 29.011C54.6289 28.4033 54.9889 27.8738 55.4511 27.4227C55.9134 26.9715 56.4556 26.6215 57.0778 26.3729C57.7 26.1243 58.3756 26 59.1045 26C59.8422 26 60.5178 26.1243 61.1311 26.3729C61.7534 26.6215 62.2911 26.9715 62.7445 27.4227C63.2067 27.8738 63.5667 28.4033 63.8245 29.011C64.0822 29.6096 64.2111 30.2726 64.2111 31C64.2111 31.7182 64.0822 32.3858 63.8245 33.0028C63.5667 33.6105 63.2067 34.14 62.7445 34.5912C62.2911 35.0331 61.7534 35.3785 61.1311 35.6271C60.5178 35.8757 59.8467 36 59.1178 36ZM59.1045 34.0939C59.5222 34.0939 59.9045 34.0203 60.2511 33.8729C60.6067 33.7256 60.9178 33.5138 61.1845 33.2376C61.4511 32.9613 61.6556 32.6344 61.7978 32.2569C61.9489 31.8794 62.0245 31.4604 62.0245 31C62.0245 30.5396 61.9489 30.1206 61.7978 29.7431C61.6556 29.3656 61.4511 29.0387 61.1845 28.7624C60.9267 28.4862 60.62 28.2744 60.2645 28.1271C59.9089 27.9797 59.5222 27.9061 59.1045 27.9061C58.6867 27.9061 58.3 27.9797 57.9445 28.1271C57.5978 28.2744 57.2911 28.4862 57.0245 28.7624C56.7578 29.0387 56.5489 29.3656 56.3978 29.7431C56.2556 30.1206 56.1845 30.5396 56.1845 31C56.1845 31.4512 56.2556 31.8702 56.3978 32.2569C56.5489 32.6344 56.7534 32.9613 57.0111 33.2376C57.2778 33.5138 57.5889 33.7256 57.9445 33.8729C58.3 34.0203 58.6867 34.0939 59.1045 34.0939Z" fill="white"/>
<path d="M78.2112 36V26H82.5398C83.435 26 84.2064 26.1476 84.854 26.4429C85.5017 26.7286 86.0017 27.1429 86.354 27.6857C86.7064 28.2286 86.8826 28.8762 86.8826 29.6286C86.8826 30.3714 86.7064 31.0143 86.354 31.5571C86.0017 32.1 85.5017 32.519 84.854 32.8143C84.2064 33.1 83.435 33.2429 82.5398 33.2429H79.4969L80.5255 32.2V36H78.2112ZM80.5255 32.4571L79.4969 31.3571H82.4112C83.1255 31.3571 83.6588 31.2048 84.0112 30.9C84.3636 30.5952 84.5398 30.1714 84.5398 29.6286C84.5398 29.0762 84.3636 28.6476 84.0112 28.3429C83.6588 28.0381 83.1255 27.8857 82.4112 27.8857H79.4969L80.5255 26.7857V32.4571Z" fill="white"/>
</svg>
